<svg xmlns="http://www.w3.org/2000/svg" viewBox="0 0 96 96" role="img" aria-label="Calculator icon">
  <defs>
    <linearGradient id="bg" x1="12" y1="8" x2="84" y2="88" gradientUnits="userSpaceOnUse">
      <stop offset="0" stop-color="#0b68c1" stop-opacity="0.9"/>
      <stop offset="1" stop-color="#0f0f0f" stop-opacity="0.95"/>
    </linearGradient>
    <linearGradient id="body" x1="24" y1="18" x2="72" y2="78" gradientUnits="userSpaceOnUse">
      <stop offset="0" stop-color="#101820"/>
      <stop offset="1" stop-color="#152332"/>
    </linearGradient>
  </defs>
  <rect x="6" y="6" width="84" height="84" rx="18" fill="url(#bg)" stroke="#0e577f" stroke-width="4"/>
  <rect x="24" y="18" width="48" height="60" rx="10" fill="url(#body)" stroke="#0e577f" stroke-width="2.5"/>
  <rect x="30" y="26" width="36" height="14" rx="4" fill="#0b68c1"/>
  <rect x="32" y="28" width="32" height="10" rx="3" fill="#0f0f0f" opacity="0.8"/>
  <g fill="#f4f4f4" opacity="0.92">
    <rect x="30" y="46" width="10" height="10" rx="2"/>
    <rect x="43" y="46" width="10" height="10" rx="2"/>
    <rect x="56" y="46" width="10" height="10" rx="2"/>
    <rect x="30" y="60" width="10" height="10" rx="2"/>
    <rect x="43" y="60" width="10" height="10" rx="2"/>
    <rect x="56" y="60" width="10" height="10" rx="2"/>
  </g>
  <rect x="30" y="74" width="36" height="8" rx="3" fill="#6bd66b"/>
</svg>
